<svg width="980" height="903" viewBox="0 0 980 903" version="1.1" xmlns="http://www.w3.org/2000/svg" xmlns:xlink="http://www.w3.org/1999/xlink">
<title>chatIcon</title>
<desc>Created using Figma</desc>
<g id="Canvas" transform="translate(1768 40)">
<g id="chatIcon">
<g id="Group">
<g id="Vector">
<use xlink:href="#path0_fill" transform="translate(-1768 -40)" fill="#B9B9B9"/>
</g>
<g id="Vector">
<use xlink:href="#path1_fill" transform="translate(-1596.7 206.6)" fill="#B9B9B9"/>
</g>
<g id="Vector">
<use xlink:href="#path2_fill" transform="translate(-1244.1 206.6)" fill="#B9B9B9"/>
</g>
<g id="Vector">
<use xlink:href="#path3_fill" transform="translate(-1419.9 206.6)" fill="#B9B9B9"/>
</g>
<g id="Vector">
<use xlink:href="#path4_fill" transform="translate(-1600.9 206.6)" fill="#B9B9B9"/>
</g>
</g>
</g>
</g>
<defs>
<path id="path0_fill" d="M 406.6 611.3C 627.4 611.3 798.6 485.2 796 298C 796 132.3 620.8 7.62939e-07 399.9 7.62939e-07C 179.1 7.62939e-07 0 132.3 0 298C 0 401.2 50.6 511.2 156.3 565.2C 156.3 565.9 156.1 566.3 156.1 567C 156.1 611.8 118.8 673.4 104 698.7L 104.1 698.7C 102.9 701.4 102.2 704.4 102.2 707.6C 102.2 720.1 112.3 730.3 124.9 730.3C 126.8 730.3 129.7 729.9 130.8 729.9C 131.1 729.9 131.2 729.9 131.2 730C 209.3 717.2 324.6 629.3 341.7 608.5C 359.2 611.1 371.1 611.6 385.8 611.6C 392.1 611.5 398.8 611.3 406.6 611.3ZM 316.6 545.5L 277.4 578.1C 268.3 588.5 228.8 621.5 194.8 642.9C 215.5 583.9 214.5 565.2 214.5 565.2L 217.4 527.8L 184.1 510.8C 99.3 467.3 61.2 377.1 61.2 298C 61.2 166.4 213.2 61.1 399.9 61.1C 586.6 61.1 734.8 166.3 734.8 298C 734.3 444 595.3 551.1 408.6 551.1C 408.6 551.1 380.1 552.2 350.8 547.9L 316.6 545.5ZM 980 545.3C 980 462.3 947.6 399.1 866.7 351.6C 864.7 373.6 858.1 402.3 851.6 418.2C 728.8 717.8 351.6 673.7 349.4 675.7C 410.2 749.9 509.6 796.8 634.3 796.8C 641.1 796.8 646.8 796.9 652.2 796.9C 664.9 796.9 675.1 796.6 690.4 794.4C 705.2 812.4 788.2 891.4 855.7 902.5C 855.7 902.4 855.8 902.4 856 902.4C 856.9 902.4 859.5 902.7 861.2 902.7C 872.1 902.7 880.8 893.9 880.8 883.1C 880.8 880.4 880.1 877.7 879.2 875.4L 879.3 875.4C 866.6 853.5 846.6 789.5 846.6 750.8C 846.6 750.2 846.4 749.8 846.4 749.3C 937.7 702.5 980 634.4 980 545.3Z"/>
<path id="path1_fill" d="M 3.05176e-06 65.8C 3.05176e-06 83 7.10001 100.1 19.3 112.3C 31.5 124.5 48.6 131.6 65.8 131.6C 83 131.6 100.1 124.5 112.3 112.3C 124.5 100.1 131.6 83 131.6 65.8C 131.6 48.6 124.5 31.5 112.3 19.3C 100.1 7.10001 83 -1.2207e-05 65.8 -1.2207e-05C 48.6 -1.2207e-05 31.5 7.10001 19.3 19.3C 7.10001 31.4 3.05176e-06 48.5 3.05176e-06 65.8Z"/>
<path id="path2_fill" d="M 2.44141e-05 65.8C 2.44141e-05 83 7.10001 100.1 19.3 112.3C 31.5 124.5 48.6 131.6 65.8 131.6C 83 131.6 100.1 124.5 112.3 112.3C 124.5 100.1 131.6 83 131.6 65.8C 131.6 48.6 124.5 31.5 112.3 19.3C 100.1 7.10001 83 -1.2207e-05 65.8 -1.2207e-05C 48.6 -1.2207e-05 31.5 7.10001 19.3 19.3C 7.10001 31.4 2.44141e-05 48.5 2.44141e-05 65.8Z"/>
<path id="path3_fill" d="M 6.10352e-06 65.8C 6.10352e-06 83 7.09999 100.1 19.3 112.3C 31.5 124.5 48.6 131.6 65.8 131.6C 83 131.6 100.1 124.5 112.3 112.3C 124.5 100.1 131.6 83 131.6 65.8C 131.6 48.6 124.5 31.5 112.3 19.3C 100.1 7.10001 83 -1.2207e-05 65.8 -1.2207e-05C 48.6 -1.2207e-05 31.5 7.10001 19.3 19.3C 6.99999 31.4 6.10352e-06 48.5 6.10352e-06 65.8Z"/>
<path id="path4_fill" d="M 6.10352e-06 65.8C 6.10352e-06 83 7.09999 100.1 19.3 112.3C 31.5 124.5 48.6 131.6 65.8 131.6C 83 131.6 100.1 124.5 112.3 112.3C 124.5 100.1 131.6 83 131.6 65.8C 131.6 48.6 124.5 31.5 112.3 19.3C 100.1 7.10001 83 -1.2207e-05 65.8 -1.2207e-05C 48.6 -1.2207e-05 31.5 7.10001 19.3 19.3C 7.09999 31.4 6.10352e-06 48.5 6.10352e-06 65.8Z"/>
</defs>
</svg>
